<mxfile host="app.diagrams.net" agent="Mozilla/5.0 (Macintosh; Intel Mac OS X 10_15_7) AppleWebKit/537.36 (KHTML, like Gecko) Chrome/133.0.0.0 Safari/537.36" version="26.1.0">
  <diagram name="Pagina-1" id="UBj_lc_3wtKey-ogXKpo">
    <mxGraphModel dx="2051" dy="774" grid="1" gridSize="10" guides="1" tooltips="1" connect="1" arrows="1" fold="1" page="1" pageScale="1" pageWidth="827" pageHeight="1169" math="0" shadow="0">
      <root>
        <object label="" id="0">
          <mxCell />
        </object>
        <mxCell id="1" parent="0" />
        <mxCell id="YRI1rNBRLGgOx3O2pkBX-44" value="" style="rounded=0;whiteSpace=wrap;html=1;" vertex="1" parent="1">
          <mxGeometry width="970" height="30" as="geometry" />
        </mxCell>
        <mxCell id="YRI1rNBRLGgOx3O2pkBX-45" value="&lt;div&gt;&lt;span style=&quot;background-color: transparent; color: light-dark(rgb(0, 0, 0), rgb(255, 255, 255));&quot;&gt;MyFitStats&amp;nbsp; &amp;nbsp; &amp;nbsp;SignIn&amp;nbsp; &amp;nbsp; &amp;nbsp;SignUp&amp;nbsp; &amp;nbsp; &amp;nbsp;SignOut&amp;nbsp;&lt;/span&gt;&lt;/div&gt;" style="text;html=1;align=center;verticalAlign=middle;whiteSpace=wrap;rounded=0;" vertex="1" parent="1">
          <mxGeometry x="700" width="290" height="30" as="geometry" />
        </mxCell>
        <mxCell id="YRI1rNBRLGgOx3O2pkBX-46" value="" style="ellipse;whiteSpace=wrap;html=1;aspect=fixed;" vertex="1" parent="1">
          <mxGeometry width="30" height="30" as="geometry" />
        </mxCell>
        <mxCell id="YRI1rNBRLGgOx3O2pkBX-47" value="Logo" style="text;html=1;align=center;verticalAlign=middle;whiteSpace=wrap;rounded=0;" vertex="1" parent="1">
          <mxGeometry x="-15" width="60" height="30" as="geometry" />
        </mxCell>
        <mxCell id="YRI1rNBRLGgOx3O2pkBX-48" value="" style="rounded=0;whiteSpace=wrap;html=1;" vertex="1" parent="1">
          <mxGeometry y="30" width="970" height="150" as="geometry" />
        </mxCell>
        <mxCell id="YRI1rNBRLGgOx3O2pkBX-50" value="fitness image" style="text;html=1;align=center;verticalAlign=middle;whiteSpace=wrap;rounded=0;" vertex="1" parent="1">
          <mxGeometry x="435" y="90" width="100" height="30" as="geometry" />
        </mxCell>
        <mxCell id="YRI1rNBRLGgOx3O2pkBX-53" value="" style="rounded=0;whiteSpace=wrap;html=1;" vertex="1" parent="1">
          <mxGeometry y="180" width="970" height="460" as="geometry" />
        </mxCell>
        <mxCell id="YRI1rNBRLGgOx3O2pkBX-49" value="&lt;font style=&quot;font-size: 55px;&quot;&gt;Fit&lt;/font&gt;&lt;span style=&quot;font-size: 55px; background-color: transparent; color: light-dark(rgb(0, 0, 0), rgb(255, 255, 255));&quot;&gt;Stats&lt;/span&gt;" style="text;html=1;align=center;verticalAlign=middle;whiteSpace=wrap;rounded=0;" vertex="1" parent="1">
          <mxGeometry x="375" y="180" width="220" height="100" as="geometry" />
        </mxCell>
        <mxCell id="YRI1rNBRLGgOx3O2pkBX-56" value="" style="rounded=1;whiteSpace=wrap;html=1;" vertex="1" parent="1">
          <mxGeometry x="104" y="310" width="310" height="160" as="geometry" />
        </mxCell>
        <mxCell id="YRI1rNBRLGgOx3O2pkBX-57" value="What is fitstats?" style="text;html=1;align=center;verticalAlign=middle;whiteSpace=wrap;rounded=0;" vertex="1" parent="1">
          <mxGeometry x="209" y="310" width="100" height="30" as="geometry" />
        </mxCell>
        <mxCell id="YRI1rNBRLGgOx3O2pkBX-58" value="Info about fitstats and fitness..." style="text;html=1;align=center;verticalAlign=middle;whiteSpace=wrap;rounded=0;" vertex="1" parent="1">
          <mxGeometry x="194" y="375" width="130" height="30" as="geometry" />
        </mxCell>
        <mxCell id="YRI1rNBRLGgOx3O2pkBX-60" value="" style="rounded=1;whiteSpace=wrap;html=1;" vertex="1" parent="1">
          <mxGeometry x="570" y="310" width="300" height="160" as="geometry" />
        </mxCell>
        <mxCell id="YRI1rNBRLGgOx3O2pkBX-61" value="Manage MyFitStats" style="text;html=1;align=center;verticalAlign=middle;whiteSpace=wrap;rounded=0;" vertex="1" parent="1">
          <mxGeometry x="620" y="310" width="200" height="30" as="geometry" />
        </mxCell>
        <mxCell id="YRI1rNBRLGgOx3O2pkBX-62" value="" style="rounded=1;whiteSpace=wrap;html=1;" vertex="1" parent="1">
          <mxGeometry x="610" y="370" width="90" height="40" as="geometry" />
        </mxCell>
        <mxCell id="YRI1rNBRLGgOx3O2pkBX-63" value="" style="rounded=1;whiteSpace=wrap;html=1;" vertex="1" parent="1">
          <mxGeometry x="737" y="370" width="90" height="40" as="geometry" />
        </mxCell>
        <mxCell id="YRI1rNBRLGgOx3O2pkBX-64" value="myfitstats button" style="text;html=1;align=center;verticalAlign=middle;whiteSpace=wrap;rounded=0;" vertex="1" parent="1">
          <mxGeometry x="625" y="375" width="60" height="30" as="geometry" />
        </mxCell>
        <mxCell id="YRI1rNBRLGgOx3O2pkBX-65" value="signup button" style="text;html=1;align=center;verticalAlign=middle;whiteSpace=wrap;rounded=0;" vertex="1" parent="1">
          <mxGeometry x="752" y="375" width="60" height="30" as="geometry" />
        </mxCell>
      </root>
    </mxGraphModel>
  </diagram>
</mxfile>
